<?xml version="1.0" encoding="UTF-8" standalone="no"?>
<svg
   xmlns:dc="http://purl.org/dc/elements/1.1/"
   xmlns:cc="http://creativecommons.org/ns#"
   xmlns:rdf="http://www.w3.org/1999/02/22-rdf-syntax-ns#"
   xmlns:svg="http://www.w3.org/2000/svg"
   xmlns="http://www.w3.org/2000/svg"
   id="svg4675"
   viewBox="0 0 389.61821 389.61821"
   height="256"
   width="256"
   version="1.1">
  <metadata
     id="metadata4681">
    <rdf:RDF>
      <cc:Work
         rdf:about="">
        <dc:format>image/svg+xml</dc:format>
        <dc:type
           rdf:resource="http://purl.org/dc/dcmitype/StillImage" />
        <dc:title></dc:title>
      </cc:Work>
    </rdf:RDF>
  </metadata>
  <defs
     id="defs4679" />
  <g
     id="g4673"
     transform="matrix(2.4919039,0,0,2.4919039,0,-73.645788)">
    <g
       transform="translate(-16.773187,-13.369163)"
       id="g5369">
      <g
         id="g5350">
        <path
           id="path4641"
           d="m 72.5,84.9 22.6,-8.6 22.6,8.6 v 0 l -22.6,8.6 z"
           style="fill:#ffc001;stroke:none" />
        <path
           id="path5228"
           d="M 72.499999,84.900002 72.399999,176.4 95,185.9 95.1,93.500001 Z"
           style="fill:#069330;fill-opacity:1;stroke:none;stroke-width:0.61075634px;stroke-linecap:butt;stroke-linejoin:miter;stroke-opacity:1" />
        <path
           id="path5230"
           d="M 117.6,176.4 95,185.9 95.1,93.500001 117.7,84.900002 Z"
           style="fill:#011da9;fill-opacity:1;stroke:none;stroke-width:0.61075634px;stroke-linecap:butt;stroke-linejoin:miter;stroke-opacity:1" />
      </g>
      <g
         id="g5345">
        <path
           id="path4645"
           d="m 41.1,56.3 21.3,8.2 -21.3,8.2 -21.3,-8.2 v 0 z"
           style="fill:#ffc001;stroke:none" />
        <path
           id="path5226"
           d="m 41.1,163.2 -21.4,-9 0.1,-89.7 21.3,8.200003 z"
           style="fill:#069330;fill-opacity:1;stroke:none;stroke-width:0.61075634px;stroke-linecap:butt;stroke-linejoin:miter;stroke-opacity:1" />
        <path
           style="fill:#011da9;fill-opacity:1;stroke:none;stroke-width:0.61075634px;stroke-linecap:butt;stroke-linejoin:miter;stroke-opacity:1"
           d="M 41.1,163.2 V 72.700005 L 62.4,64.500002 V 154.2 Z"
           id="path5234" />
      </g>
      <g
         id="g5355">
        <path
           id="path4643"
           d="m 148.9,56.3 21.3,8.2 -21.3,8.2 -21.3,-8.2 v 0 z"
           style="fill:#ffc001;stroke:none" />
        <path
           id="path5232"
           d="M 148.9,163.2 V 72.700003 L 170.2,64.5 v 89.7 z"
           style="fill:#011da9;fill-opacity:1;stroke:none;stroke-width:0.61075634px;stroke-linecap:butt;stroke-linejoin:miter;stroke-opacity:1" />
        <path
           style="fill:#069330;fill-opacity:1;stroke:none;stroke-width:0.61075634px;stroke-linecap:butt;stroke-linejoin:miter;stroke-opacity:1"
           d="m 148.9,163.2 -21.4,-9 0.1,-89.700002 21.3,8.200003 z"
           id="path5236" />
      </g>
    </g>
  </g>
</svg>
